<svg xmlns="http://www.w3.org/2000/svg" xmlns:xlink="http://www.w3.org/1999/xlink" width="120" zoomAndPan="magnify" viewBox="0 0 90 30.000001" height="40" preserveAspectRatio="xMidYMid meet" version="1.0"><defs><g/><clipPath id="f2235ab287"><path d="M 1.453125 0 L 40 0 L 40 29.03125 L 1.453125 29.03125 Z M 1.453125 0 " clip-rule="nonzero"/></clipPath><clipPath id="5a62ca1785"><path d="M 5 0 L 46 0 L 46 29.03125 L 5 29.03125 Z M 5 0 " clip-rule="nonzero"/></clipPath><clipPath id="bd190bf574"><path d="M 10 0 L 55 0 L 55 29.03125 L 10 29.03125 Z M 10 0 " clip-rule="nonzero"/></clipPath><clipPath id="c695504892"><path d="M 21 0 L 66 0 L 66 29.03125 L 21 29.03125 Z M 21 0 " clip-rule="nonzero"/></clipPath><clipPath id="b86f0ec4e1"><path d="M 32 0 L 76 0 L 76 29.03125 L 32 29.03125 Z M 32 0 " clip-rule="nonzero"/></clipPath><clipPath id="2bc49e9e38"><path d="M 41 0 L 86 0 L 86 29.03125 L 41 29.03125 Z M 41 0 " clip-rule="nonzero"/></clipPath><clipPath id="5b52fe29b7"><path d="M 50 0 L 88.546875 0 L 88.546875 29.03125 L 50 29.03125 Z M 50 0 " clip-rule="nonzero"/></clipPath><clipPath id="78fab1bb4d"><path d="M 8 2 L 48 2 L 48 29.03125 L 8 29.03125 Z M 8 2 " clip-rule="nonzero"/></clipPath><clipPath id="dcaed3b6c8"><path d="M 18 0 L 56 0 L 56 29.03125 L 18 29.03125 Z M 18 0 " clip-rule="nonzero"/></clipPath><clipPath id="b315f8e440"><path d="M 29 0 L 64 0 L 64 29.03125 L 29 29.03125 Z M 29 0 " clip-rule="nonzero"/></clipPath><clipPath id="55c62ae5ec"><path d="M 37 0 L 74 0 L 74 29.03125 L 37 29.03125 Z M 37 0 " clip-rule="nonzero"/></clipPath><clipPath id="cd178bfc47"><path d="M 47 2 L 83 2 L 83 29.03125 L 47 29.03125 Z M 47 2 " clip-rule="nonzero"/></clipPath></defs><g clip-path="url(#f2235ab287)"><path stroke-linecap="butt" transform="matrix(1.13439, -0.289112, 0.289112, 1.13439, 11.394825, 3.258174)" fill="none" stroke-linejoin="miter" d="M 4.424796 9.63279 L 4.426197 11.451306 C 4.204366 11.646144 3.912286 11.805861 3.545076 11.936099 C 3.177865 12.066338 2.731655 12.128234 2.204797 12.128254 C 1.681173 12.129099 1.228489 12.013727 0.848394 11.775673 C 0.431146 11.521263 0.223178 11.16179 0.222907 10.689964 L 0.223957 3.376276 C 0.222735 2.935199 1.304973 2.715158 3.467436 2.715328 L 7.692824 2.714405 C 7.83409 2.970791 7.93719 3.255328 8.002124 3.568017 C 8.070292 3.88153 8.104602 4.165753 8.103471 4.413395 C 8.105732 5.512442 7.621691 6.060558 6.656989 6.062624 L 4.167569 6.061768 C 3.984659 6.06336 3.892858 6.139825 3.8954 6.291986 L 3.892739 6.34296 C 3.892614 6.370476 3.897369 6.392349 3.908655 6.402112 L 7.090851 6.400468 C 7.335783 6.81757 7.456643 7.289138 7.457487 7.812763 C 7.456942 8.463442 7.309745 8.973441 7.017547 9.336293 L 3.491403 9.336365 C 3.453998 9.375041 3.43276 9.417837 3.434157 9.466402 C 3.432194 9.541658 3.49268 9.588065 3.609148 9.603974 C 3.726439 9.61665 3.858312 9.626155 4.010473 9.623613 C 4.158577 9.62348 4.295332 9.627342 4.424796 9.63279 Z M 4.424796 9.63279 " stroke="#d269e6" stroke-width="2.543633" stroke-opacity="1" stroke-miterlimit="4"/></g><g clip-path="url(#5a62ca1785)"><path stroke-linecap="butt" transform="matrix(1.15103, -0.213438, 0.213438, 1.15103, 21.000292, 0.896946)" fill="none" stroke-linejoin="miter" d="M 4.433668 4.016912 L 4.432744 11.452338 C 4.213598 11.645866 3.919361 11.805108 3.548816 11.936626 C 3.17888 12.064862 2.728876 12.13074 2.203304 12.128306 C 1.673843 12.128544 1.227164 12.011778 0.856707 11.776792 C 0.438861 11.522838 0.230906 11.161875 0.228951 10.696575 L 0.229875 3.26115 C 0.451694 3.071511 0.746539 2.908988 1.116476 2.780751 C 1.483131 2.651906 1.929854 2.58542 2.455426 2.587854 C 2.978325 2.586399 3.432174 2.701101 3.813691 2.93135 C 4.226431 3.194539 4.433778 3.558783 4.433668 4.016912 Z M 4.433668 4.016912 " stroke="#d269e6" stroke-width="2.543633" stroke-opacity="1" stroke-miterlimit="4"/></g><g clip-path="url(#bd190bf574)"><path stroke-linecap="butt" transform="matrix(1.16321, -0.131788, 0.131788, 1.16321, 27.079415, -0.289205)" fill="none" stroke-linejoin="miter" d="M 6.447681 6.392489 L 6.448548 11.453341 C 6.228886 11.643377 5.931903 11.804503 5.564607 11.934156 C 5.193994 12.063433 4.746503 12.130269 4.215875 12.130598 C 3.688939 12.127987 3.241839 12.013526 2.872385 11.776895 C 2.4547 11.521366 2.24691 11.162008 2.2457 10.698444 L 2.247235 6.060993 L 0.568021 6.062159 C 0.224552 5.566534 0.0503091 5.029636 0.0497354 4.441892 C 0.0509589 4.045768 0.113987 3.696943 0.241383 3.402425 C 0.36878 3.107908 0.525886 2.877204 0.711952 2.716943 L 8.153994 2.713846 C 8.29392 2.931189 8.408693 3.192697 8.501629 3.498744 C 8.590874 3.807732 8.637016 4.111837 8.636364 4.413997 C 8.635876 4.981472 8.511534 5.397229 8.263338 5.66127 C 8.011451 5.92825 7.677311 6.06166 7.254286 6.060747 L 5.145039 6.063563 C 5.131336 6.095592 5.123888 6.131688 5.123072 6.168536 C 5.123252 6.255868 5.173607 6.315304 5.274512 6.343527 C 5.381673 6.375817 5.607886 6.39473 5.950585 6.393259 Z M 6.447681 6.392489 " stroke="#d269e6" stroke-width="2.543633" stroke-opacity="1" stroke-miterlimit="4"/></g><g clip-path="url(#c695504892)"><path stroke-linecap="butt" transform="matrix(1.170428, -0.0228779, 0.0228779, 1.170428, 38.150611, -1.50579)" fill="none" stroke-linejoin="miter" d="M 0.230139 10.669273 L 0.23094 3.457051 C 0.229159 3.206707 0.430102 3.000375 0.830498 2.834654 C 1.230894 2.668933 1.703121 2.584714 2.247114 2.585335 C 2.554173 2.584662 2.840432 2.623632 3.11263 2.699039 C 3.384892 2.77111 3.589975 2.86523 3.734549 2.981529 C 3.933231 3.232384 4.11183 3.486185 4.273617 3.746331 C 4.438807 4.003206 4.804122 4.607751 5.376236 5.560096 C 5.42968 5.557803 5.476713 5.542035 5.520735 5.509521 C 5.564823 5.473671 5.585818 5.42402 5.583852 5.353895 C 5.585221 5.283835 5.524442 5.149149 5.404916 4.946565 L 4.626786 3.606386 L 4.627808 3.212587 C 4.872056 3.010439 5.16877 2.856041 5.521416 2.742785 C 5.870661 2.632801 6.232143 2.579792 6.605925 2.580424 C 7.216707 2.579013 7.708505 2.688749 8.08132 2.909634 C 8.52001 3.175192 8.738915 3.586641 8.737968 4.147314 L 8.738254 10.962401 C 8.736841 11.376218 8.540744 11.676093 8.146629 11.861962 C 7.812891 12.032323 7.364082 12.113662 6.800007 12.115986 C 6.489612 12.116594 6.186607 12.080634 5.890861 12.014779 C 5.59518 11.945588 5.363212 11.860955 5.195089 11.754207 C 4.856538 11.317058 4.518966 10.829866 4.182502 10.28596 L 3.448796 9.06346 C 3.30822 9.084074 3.240062 9.156166 3.237518 9.286277 C 3.239224 9.369747 3.30962 9.524646 3.448642 9.75431 L 4.348059 11.206996 L 4.347232 11.590787 C 3.789524 11.950343 3.161942 12.12831 2.464419 12.128026 C 1.766832 12.131078 1.218645 12.003552 0.823129 11.748849 C 0.427613 11.494147 0.231083 11.133198 0.230139 10.669273 Z M 0.230139 10.669273 " stroke="#d269e6" stroke-width="2.543633" stroke-opacity="1" stroke-miterlimit="4"/></g><g clip-path="url(#b86f0ec4e1)"><path stroke-linecap="butt" transform="matrix(1.167775, 0.0820134, -0.0820134, 1.167775, 49.576432, -1.662644)" fill="none" stroke-linejoin="miter" d="M 3.47029 2.715422 L 7.621443 2.714902 C 7.761433 2.945913 7.862649 3.196373 7.931981 3.469141 C 7.997751 3.738815 8.031459 3.980636 8.03334 4.197931 C 8.030622 4.683152 7.935805 5.04773 7.748889 5.291664 C 7.558645 5.535833 7.292945 5.658189 6.95179 5.658733 L 4.051618 5.658367 C 3.8745 5.660771 3.785507 5.727231 3.785339 5.867734 L 3.785985 5.924555 C 3.78476 5.954746 3.789491 5.974484 3.800179 5.983769 L 7.238829 5.983113 C 7.326141 6.130853 7.399615 6.319705 7.462345 6.546106 C 7.519588 6.789619 7.548331 7.008373 7.548342 7.199039 C 7.548373 7.771038 7.445852 8.216438 7.234356 8.539034 L 5.672177 8.538361 C 4.943032 8.539393 4.446366 8.564239 4.189539 8.622417 C 3.92915 8.677499 3.768385 8.72224 3.707479 8.759968 C 3.643712 8.804587 3.614167 8.860183 3.612185 8.927223 C 3.613531 8.994029 3.647229 9.045183 3.713512 9.084013 C 3.962045 9.003003 4.22553 8.944358 4.497541 8.911874 C 4.859893 8.879736 5.250043 8.862371 5.671552 8.862873 L 7.695184 8.861244 C 7.985207 9.27573 8.133679 9.770403 8.134412 10.352388 C 8.133787 10.6769 8.092284 10.990903 8.009435 11.28774 C 7.929914 11.584343 7.806243 11.823836 7.641748 12.005985 L 2.252929 12.006455 C 1.65763 12.008123 1.179234 11.864434 0.821069 11.575155 C 0.428215 11.268242 0.22929 10.817252 0.230951 10.221719 L 0.231978 3.377705 C 0.229162 3.147095 0.494918 2.977904 1.022821 2.873929 C 1.550491 2.766624 2.366469 2.716008 3.47029 2.715422 Z M 3.47029 2.715422 " stroke="#d269e6" stroke-width="2.543633" stroke-opacity="1" stroke-miterlimit="4"/></g><g clip-path="url(#2bc49e9e38)"><path stroke-linecap="butt" transform="matrix(1.15624, 0.183125, -0.183125, 1.15624, 59.820615, -0.916027)" fill="none" stroke-linejoin="miter" d="M 4.103436 9.378912 C 4.261109 9.350562 4.339655 9.270554 4.339072 9.138888 C 4.338489 9.007222 4.297999 8.858228 4.214307 8.692428 C 4.130615 8.526627 4.007895 8.370386 3.842331 8.220931 C 3.416969 7.838972 2.839213 7.64669 2.109065 7.644087 C 1.748069 7.647207 1.412948 7.70704 1.100405 7.824109 C 0.76986 7.656864 0.504841 7.391403 0.308645 7.027202 C 0.112448 6.663002 0.0130355 6.26996 0.013703 5.847553 C 0.0143943 4.742704 0.474389 3.892816 1.395939 3.290776 C 2.186211 2.777096 3.165865 2.520586 4.325011 2.522813 C 5.189599 2.521016 5.916841 2.611919 6.507257 2.798817 C 7.097152 2.982419 7.577437 3.220543 7.953661 3.505554 C 8.064661 3.822437 8.116858 4.15201 8.116846 4.493231 C 8.12013 4.833931 8.074306 5.141867 7.979895 5.420335 C 7.889302 5.701578 7.758607 5.921603 7.586082 6.090821 C 7.42192 5.971549 7.128866 5.849043 6.700329 5.724345 C 6.275088 5.599125 5.883357 5.536167 5.535544 5.537199 C 5.183914 5.535457 4.951124 5.558812 4.832836 5.601196 C 4.714547 5.643579 4.658028 5.713342 4.655643 5.804937 C 4.655315 5.84553 4.665397 5.887852 4.678252 5.926357 C 4.84702 5.882735 5.063331 5.86199 5.326662 5.860824 C 6.262549 5.861249 7.023852 6.081893 7.613868 6.522235 C 8.309051 7.050651 8.657586 7.84343 8.658952 8.897277 C 8.658006 9.829868 8.280374 10.602521 7.529353 11.214715 C 6.711567 11.874646 5.614506 12.200427 4.239734 12.201945 C 3.479402 12.200744 2.825383 12.145542 2.266746 12.031314 C 1.711927 11.919861 1.167129 11.722359 0.638943 11.437767 C 0.279434 10.916998 0.100505 10.384521 0.099382 9.844154 C 0.101555 9.303264 0.284532 8.85874 0.65386 8.502946 C 1.023189 8.147152 1.478298 7.970341 2.018666 7.969218 C 2.559033 7.968095 2.999187 8.080817 3.344675 8.29975 C 3.687389 8.5225 3.940136 8.881123 4.103436 9.378912 Z M 4.103436 9.378912 " stroke="#d269e6" stroke-width="2.543633" stroke-opacity="1" stroke-miterlimit="4"/></g><g clip-path="url(#5b52fe29b7)"><path stroke-linecap="butt" transform="matrix(1.135285, 0.285573, -0.285573, 1.135285, 70.507601, 0.81789)" fill="none" stroke-linejoin="miter" d="M 4.100439 9.379009 C 4.26226 9.352067 4.341452 9.270213 4.339644 9.139919 C 4.340259 9.005574 4.296343 8.858346 4.213555 8.693369 C 4.130767 8.528393 4.005097 8.370762 3.843831 8.222085 C 3.416772 7.83748 2.838655 7.645706 2.10948 7.646765 C 1.747721 7.644862 1.41195 7.705238 1.101353 7.824656 C 0.770106 7.656803 0.50751 7.392543 0.3087 7.02622 C 0.113941 6.662319 0.0146331 6.267526 0.0156419 5.847499 C 0.0132298 4.74362 0.476529 3.890757 1.39583 3.291351 C 2.189007 2.778723 3.163025 2.519952 4.325986 2.519882 C 5.189506 2.519438 5.914772 2.612264 6.505019 2.797545 C 7.095266 2.982827 7.577951 3.21925 7.953073 3.506815 C 8.063597 3.82309 8.119109 4.153203 8.118794 4.493918 C 8.118479 4.834633 8.071987 5.142234 7.980944 5.423192 C 7.892323 5.700101 7.759112 5.922851 7.584548 6.090629 C 7.423322 5.969468 7.127751 5.847694 6.701072 5.724491 C 6.273579 5.598051 5.886647 5.537107 5.53541 5.535998 C 5.184987 5.538125 4.949512 5.559509 4.833036 5.602571 C 4.71656 5.645633 4.657577 5.712081 4.656089 5.801915 C 4.656963 5.846425 4.663495 5.886071 4.677313 5.927325 C 4.844771 5.881762 5.063252 5.861212 5.324655 5.860832 C 6.260201 5.859474 7.024498 6.080112 7.614311 6.52356 C 8.311072 7.050211 8.658603 7.843627 8.658513 8.896524 C 8.659058 9.828834 8.282237 10.601451 7.528052 11.214375 C 6.713237 11.873517 5.615496 12.201258 4.238879 12.20002 C 3.482187 12.201118 2.824957 12.146231 2.266376 12.032122 C 1.711845 11.920435 1.170138 11.722943 0.641255 11.439647 C 0.281973 10.914125 0.100732 10.385108 0.102375 9.844495 C 0.100782 9.304695 0.283841 8.856079 0.655603 8.501066 C 1.024128 8.146868 1.478698 7.970591 2.018497 7.968998 C 2.55911 7.97064 2.999527 8.080066 3.343797 8.299695 C 3.684832 8.520138 3.941096 8.882331 4.100439 9.379009 Z M 4.100439 9.379009 " stroke="#d269e6" stroke-width="2.543633" stroke-opacity="1" stroke-miterlimit="4"/></g><g fill="#ffffff" fill-opacity="1"><g transform="translate(14.864165, 16.870848)"><g><path d="M 4.34375 -3.96875 L 4.875 -1.90625 C 4.664062 -1.613281 4.367188 -1.335938 3.984375 -1.078125 C 3.609375 -0.828125 3.125 -0.625 2.53125 -0.46875 C 1.9375 -0.320312 1.394531 -0.332031 0.90625 -0.5 C 0.351562 -0.664062 0.0078125 -1.015625 -0.125 -1.546875 L -2.25 -9.84375 C -2.375 -10.332031 -1.207031 -10.890625 1.25 -11.515625 L 6.03125 -12.734375 C 6.269531 -12.492188 6.472656 -12.207031 6.640625 -11.875 C 6.804688 -11.539062 6.925781 -11.226562 7 -10.9375 C 7.3125 -9.695312 6.925781 -8.9375 5.84375 -8.65625 L 3 -7.9375 C 2.800781 -7.882812 2.726562 -7.769531 2.78125 -7.59375 L 2.78125 -7.546875 C 2.789062 -7.503906 2.804688 -7.476562 2.828125 -7.46875 L 6.4375 -8.390625 C 6.820312 -7.984375 7.085938 -7.488281 7.234375 -6.90625 C 7.429688 -6.164062 7.421875 -5.546875 7.203125 -5.046875 L 3.1875 -4.015625 C 3.15625 -3.960938 3.144531 -3.910156 3.15625 -3.859375 C 3.175781 -3.765625 3.253906 -3.726562 3.390625 -3.75 C 3.535156 -3.769531 3.691406 -3.800781 3.859375 -3.84375 C 4.023438 -3.882812 4.1875 -3.925781 4.34375 -3.96875 Z M 4.34375 -3.96875 "/></g></g></g><g fill="#ffffff" fill-opacity="1"><g transform="translate(23.561546, 14.709304)"><g><path d="M 3.390625 -10.140625 L 4.984375 -1.578125 C 4.773438 -1.304688 4.46875 -1.054688 4.0625 -0.828125 C 3.664062 -0.597656 3.164062 -0.425781 2.5625 -0.3125 C 1.957031 -0.195312 1.414062 -0.242188 0.9375 -0.453125 C 0.40625 -0.640625 0.0859375 -1.003906 -0.015625 -1.546875 L -1.59375 -10.09375 C -1.382812 -10.375 -1.082031 -10.625 -0.6875 -10.84375 C -0.289062 -11.070312 0.207031 -11.238281 0.8125 -11.34375 C 1.414062 -11.457031 1.960938 -11.425781 2.453125 -11.25 C 2.972656 -11.039062 3.285156 -10.671875 3.390625 -10.140625 Z M 3.390625 -10.140625 "/></g></g></g><g fill="#ffffff" fill-opacity="1"><g transform="translate(28.660872, 13.669314)"><g><path d="M 6.765625 -7.359375 L 7.421875 -1.484375 C 7.191406 -1.234375 6.867188 -1.003906 6.453125 -0.796875 C 6.046875 -0.597656 5.535156 -0.460938 4.921875 -0.390625 C 4.304688 -0.328125 3.769531 -0.410156 3.3125 -0.640625 C 2.789062 -0.878906 2.5 -1.269531 2.4375 -1.8125 L 1.828125 -7.203125 L -0.109375 -6.984375 C -0.578125 -7.503906 -0.851562 -8.101562 -0.9375 -8.78125 C -0.988281 -9.25 -0.957031 -9.664062 -0.84375 -10.03125 C -0.738281 -10.394531 -0.585938 -10.679688 -0.390625 -10.890625 L 8.265625 -11.875 C 8.441406 -11.632812 8.601562 -11.34375 8.75 -11 C 8.90625 -10.65625 9.003906 -10.304688 9.046875 -9.953125 C 9.117188 -9.304688 9.023438 -8.8125 8.765625 -8.46875 C 8.515625 -8.125 8.144531 -7.921875 7.65625 -7.859375 L 5.203125 -7.578125 C 5.191406 -7.535156 5.191406 -7.492188 5.203125 -7.453125 C 5.210938 -7.347656 5.269531 -7.285156 5.375 -7.265625 C 5.507812 -7.242188 5.78125 -7.253906 6.1875 -7.296875 Z M 6.765625 -7.359375 "/></g></g></g><g fill="#ffffff" fill-opacity="1"><g transform="translate(38.425145, 12.539348)"><g><path d="M 0.234375 -1.5625 L 0.0625 -10 C 0.0625 -10.289062 0.289062 -10.535156 0.75 -10.734375 C 1.21875 -10.941406 1.769531 -11.050781 2.40625 -11.0625 C 2.769531 -11.070312 3.113281 -11.035156 3.4375 -10.953125 C 3.757812 -10.867188 4.003906 -10.757812 4.171875 -10.625 C 4.398438 -10.34375 4.613281 -10.050781 4.8125 -9.75 C 5.007812 -9.457031 5.457031 -8.757812 6.15625 -7.65625 C 6.21875 -7.65625 6.269531 -7.675781 6.3125 -7.71875 C 6.351562 -7.757812 6.375 -7.820312 6.375 -7.90625 C 6.375 -7.988281 6.304688 -8.144531 6.171875 -8.375 L 5.234375 -9.9375 L 5.21875 -10.390625 C 5.5 -10.628906 5.84375 -10.816406 6.25 -10.953125 C 6.65625 -11.097656 7.078125 -11.175781 7.515625 -11.1875 C 8.222656 -11.195312 8.800781 -11.078125 9.25 -10.828125 C 9.757812 -10.523438 10.023438 -10.046875 10.046875 -9.390625 L 10.1875 -1.421875 C 10.195312 -0.929688 9.976562 -0.570312 9.53125 -0.34375 C 9.132812 -0.132812 8.609375 -0.0234375 7.953125 -0.015625 C 7.585938 -0.00390625 7.234375 -0.0351562 6.890625 -0.109375 C 6.546875 -0.179688 6.273438 -0.28125 6.078125 -0.40625 C 5.671875 -0.90625 5.257812 -1.46875 4.84375 -2.09375 L 3.96875 -3.515625 C 3.8125 -3.492188 3.734375 -3.40625 3.734375 -3.25 C 3.734375 -3.15625 3.816406 -2.972656 3.984375 -2.703125 L 5.078125 -1.015625 L 5.078125 -0.578125 C 4.429688 -0.140625 3.695312 0.0820312 2.875 0.09375 C 2.0625 0.113281 1.421875 -0.015625 0.953125 -0.296875 C 0.484375 -0.585938 0.242188 -1.007812 0.234375 -1.5625 Z M 0.234375 -1.5625 "/></g></g></g><g fill="#ffffff" fill-opacity="1"><g transform="translate(48.592271, 12.35066)"><g><path d="M 4.8125 -10.546875 L 9.671875 -10.203125 C 9.816406 -9.929688 9.914062 -9.632812 9.96875 -9.3125 C 10.03125 -8.988281 10.050781 -8.703125 10.03125 -8.453125 C 9.988281 -7.890625 9.84375 -7.472656 9.59375 -7.203125 C 9.351562 -6.929688 9.035156 -6.8125 8.640625 -6.84375 L 5.234375 -7.078125 C 5.035156 -7.085938 4.929688 -7.007812 4.921875 -6.84375 L 4.921875 -6.78125 C 4.921875 -6.75 4.925781 -6.726562 4.9375 -6.71875 L 8.953125 -6.4375 C 9.035156 -6.25 9.109375 -6.023438 9.171875 -5.765625 C 9.210938 -5.460938 9.222656 -5.203125 9.203125 -4.984375 C 9.160156 -4.304688 9.003906 -3.789062 8.734375 -3.4375 L 6.90625 -3.5625 C 6.050781 -3.625 5.46875 -3.632812 5.15625 -3.59375 C 4.851562 -3.550781 4.664062 -3.515625 4.59375 -3.484375 C 4.519531 -3.429688 4.476562 -3.363281 4.46875 -3.28125 C 4.46875 -3.207031 4.5 -3.144531 4.5625 -3.09375 C 4.863281 -3.164062 5.175781 -3.207031 5.5 -3.21875 C 5.914062 -3.238281 6.375 -3.226562 6.875 -3.1875 L 9.234375 -3.03125 C 9.535156 -2.53125 9.664062 -1.9375 9.625 -1.25 C 9.59375 -0.875 9.519531 -0.515625 9.40625 -0.171875 C 9.289062 0.160156 9.128906 0.429688 8.921875 0.640625 L 2.640625 0.203125 C 1.941406 0.148438 1.390625 -0.0625 0.984375 -0.4375 C 0.554688 -0.820312 0.363281 -1.363281 0.40625 -2.0625 L 0.96875 -10.046875 C 0.988281 -10.316406 1.3125 -10.488281 1.9375 -10.5625 C 2.570312 -10.632812 3.53125 -10.628906 4.8125 -10.546875 Z M 4.8125 -10.546875 "/></g></g></g><g fill="#ffffff" fill-opacity="1"><g transform="translate(57.623113, 12.958851)"><g><path d="M 5.21875 -2.28125 C 5.40625 -2.28125 5.507812 -2.351562 5.53125 -2.5 C 5.5625 -2.65625 5.539062 -2.835938 5.46875 -3.046875 C 5.40625 -3.253906 5.289062 -3.460938 5.125 -3.671875 C 4.707031 -4.179688 4.078125 -4.503906 3.234375 -4.640625 C 2.828125 -4.710938 2.425781 -4.707031 2.03125 -4.625 C 1.675781 -4.882812 1.421875 -5.238281 1.265625 -5.6875 C 1.109375 -6.144531 1.066406 -6.617188 1.140625 -7.109375 C 1.347656 -8.390625 2.039062 -9.289062 3.21875 -9.8125 C 4.226562 -10.257812 5.398438 -10.375 6.734375 -10.15625 C 7.734375 -10 8.554688 -9.757812 9.203125 -9.4375 C 9.847656 -9.113281 10.363281 -8.753906 10.75 -8.359375 C 10.820312 -7.984375 10.828125 -7.597656 10.765625 -7.203125 C 10.703125 -6.804688 10.59375 -6.453125 10.4375 -6.140625 C 10.28125 -5.828125 10.082031 -5.597656 9.84375 -5.453125 C 9.675781 -5.609375 9.359375 -5.796875 8.890625 -6.015625 C 8.421875 -6.242188 7.984375 -6.390625 7.578125 -6.453125 C 7.171875 -6.515625 6.894531 -6.53125 6.75 -6.5 C 6.613281 -6.46875 6.539062 -6.398438 6.53125 -6.296875 C 6.519531 -6.242188 6.515625 -6.195312 6.515625 -6.15625 C 6.710938 -6.175781 6.96875 -6.164062 7.28125 -6.125 C 8.363281 -5.945312 9.203125 -5.550781 9.796875 -4.9375 C 10.503906 -4.207031 10.757812 -3.226562 10.5625 -2 C 10.394531 -0.925781 9.820312 -0.101562 8.84375 0.46875 C 7.78125 1.082031 6.457031 1.265625 4.875 1.015625 C 3.988281 0.867188 3.234375 0.679688 2.609375 0.453125 C 1.992188 0.222656 1.40625 -0.0976562 0.84375 -0.515625 C 0.53125 -1.203125 0.421875 -1.851562 0.515625 -2.46875 C 0.617188 -3.09375 0.914062 -3.578125 1.40625 -3.921875 C 1.894531 -4.265625 2.445312 -4.382812 3.0625 -4.28125 C 3.6875 -4.1875 4.175781 -3.976562 4.53125 -3.65625 C 4.882812 -3.34375 5.113281 -2.882812 5.21875 -2.28125 Z M 5.21875 -2.28125 "/></g></g></g><g fill="#ffffff" fill-opacity="1"><g transform="translate(67.08072, 14.441316)"><g><path d="M 5.40625 -1.796875 C 5.59375 -1.785156 5.703125 -1.851562 5.734375 -2 C 5.773438 -2.15625 5.769531 -2.335938 5.71875 -2.546875 C 5.675781 -2.753906 5.582031 -2.96875 5.4375 -3.1875 C 5.070312 -3.738281 4.472656 -4.117188 3.640625 -4.328125 C 3.234375 -4.429688 2.832031 -4.46875 2.4375 -4.4375 C 2.113281 -4.71875 1.890625 -5.09375 1.765625 -5.5625 C 1.648438 -6.03125 1.648438 -6.503906 1.765625 -6.984375 C 2.085938 -8.234375 2.859375 -9.0625 4.078125 -9.46875 C 5.117188 -9.84375 6.296875 -9.863281 7.609375 -9.53125 C 8.585938 -9.28125 9.382812 -8.960938 10 -8.578125 C 10.625 -8.203125 11.109375 -7.800781 11.453125 -7.375 C 11.492188 -6.988281 11.460938 -6.597656 11.359375 -6.203125 C 11.265625 -5.816406 11.125 -5.476562 10.9375 -5.1875 C 10.75 -4.894531 10.535156 -4.679688 10.296875 -4.546875 C 10.140625 -4.722656 9.835938 -4.941406 9.390625 -5.203125 C 8.941406 -5.460938 8.519531 -5.644531 8.125 -5.75 C 7.726562 -5.851562 7.457031 -5.894531 7.3125 -5.875 C 7.164062 -5.863281 7.078125 -5.804688 7.046875 -5.703125 C 7.035156 -5.648438 7.03125 -5.601562 7.03125 -5.5625 C 7.238281 -5.5625 7.492188 -5.523438 7.796875 -5.453125 C 8.859375 -5.179688 9.660156 -4.710938 10.203125 -4.046875 C 10.835938 -3.242188 11.003906 -2.242188 10.703125 -1.046875 C 10.429688 0.00390625 9.785156 0.773438 8.765625 1.265625 C 7.648438 1.773438 6.3125 1.835938 4.75 1.453125 C 3.882812 1.234375 3.148438 0.976562 2.546875 0.6875 C 1.953125 0.394531 1.398438 0.015625 0.890625 -0.453125 C 0.640625 -1.148438 0.585938 -1.800781 0.734375 -2.40625 C 0.890625 -3.019531 1.226562 -3.476562 1.75 -3.78125 C 2.269531 -4.082031 2.835938 -4.15625 3.453125 -4 C 4.066406 -3.84375 4.53125 -3.585938 4.84375 -3.234375 C 5.164062 -2.890625 5.351562 -2.410156 5.40625 -1.796875 Z M 5.40625 -1.796875 "/></g></g></g><g clip-path="url(#78fab1bb4d)"><path stroke-linecap="butt" transform="matrix(0.932165, -0.188387, 0.188387, 0.932165, 20.511055, 15.242276)" fill="none" stroke-linejoin="miter" d="M 10.711307 10.34869 C 10.015284 10.765365 9.110676 11.156648 8.27694 11.155774 L 8.230971 10.78191 C 8.422722 10.766185 8.720863 10.721675 9.139955 10.617799 C 9.762557 9.859425 10.193353 8.74381 10.192618 7.109361 C 10.194878 3.987884 8.454612 1.73369 5.305808 1.700764 L 5.28889 1.701536 C 2.112634 1.700776 0.35683 3.960817 0.35774 7.108077 C 0.356275 11.034293 2.821019 11.943078 4.395469 12.135552 C 4.295196 11.926714 4.23454 11.646263 4.145701 11.360116 L 4.501961 11.256113 C 5.022536 13.15905 6.463222 14.573264 8.499634 14.574144 C 12.392828 14.573125 11.726283 11.153056 10.711307 10.34869 Z M 4.815971 7.732493 L 4.813229 6.294592 C 4.812752 6.131066 4.843967 5.831466 5.233038 5.834667 C 5.66481 5.833925 5.693216 6.128812 5.693692 6.292338 L 5.691595 7.733451 C 5.691257 7.901003 5.66167 8.192551 5.275812 8.19419 C 4.844039 8.194931 4.815633 7.900045 4.815971 7.732493 Z M 10.578012 12.936633 C 10.653736 12.935175 10.713187 13.014238 10.671131 13.097929 C 10.356518 13.721592 9.421539 13.993593 8.528998 13.993406 C 7.963508 13.992267 7.415148 13.885636 7.072371 13.694838 C 6.998443 13.604468 7.060672 13.5039 7.149288 13.500857 C 7.174258 13.501712 7.191948 13.517859 7.222529 13.53242 C 7.502559 13.681204 7.980077 13.765137 8.48676 13.766964 C 9.303578 13.768609 10.223181 13.531215 10.478777 13.01296 C 10.5079 12.951797 10.549016 12.934964 10.578012 12.936633 Z M 3.460032 3.03747 C 4.014721 2.801758 4.623979 2.669265 5.231356 2.670489 C 5.826655 2.669271 6.402384 2.785624 6.895669 3.040363 C 7.046219 3.083361 7.090253 3.217975 6.925829 3.264365 C 6.388986 3.038537 5.720657 2.903471 5.08347 2.904604 C 4.530059 2.905906 4.014299 3.011198 3.550667 3.231789 L 3.521671 3.23012 C 3.416951 3.229909 3.389793 3.115467 3.460032 3.03747 Z M 4.649509 8.390286 C 4.695815 8.596599 4.89061 8.66949 5.083133 8.670684 C 5.200745 8.669309 5.320026 8.638939 5.407913 8.598033 C 5.423246 8.58437 5.453056 8.582013 5.465948 8.580428 C 5.557776 8.582224 5.628449 8.688698 5.543691 8.776332 C 5.411433 8.850175 5.2599 8.894981 5.113292 8.894685 C 4.816049 8.893281 4.515076 8.744455 4.444011 8.432566 C 4.428889 8.341509 4.474887 8.300519 4.529667 8.299019 C 4.579608 8.30073 4.636744 8.329039 4.649509 8.390286 Z M 5.678154 5.208045 C 6.046197 5.253091 6.288841 5.566131 6.330011 5.922264 C 6.33147 5.997988 6.288684 6.043818 6.225852 6.043691 C 6.179938 6.042793 6.122843 5.99354 6.104424 5.939532 C 6.104551 5.8767 5.990995 5.464033 5.661586 5.435175 C 5.530353 5.400272 5.514628 5.208521 5.678154 5.208045 Z M 10.89101 12.714934 C 10.803208 12.713951 10.727134 12.489051 10.848772 12.488491 C 10.877768 12.49016 10.906765 12.49183 10.951823 12.517698 C 10.979921 12.565282 11.008833 12.608839 10.966047 12.654669 C 10.940179 12.699727 10.903902 12.713348 10.89101 12.714934 Z M 7.372639 3.396569 C 7.373326 3.455375 7.309596 3.501163 7.251604 3.497824 C 7.192798 3.498511 7.146968 3.455725 7.147094 3.392892 C 7.145594 3.338112 7.190821 3.280204 7.253653 3.280331 C 7.308433 3.27883 7.371952 3.337763 7.372639 3.396569 Z M 7.372639 3.396569 " stroke="#d269e6" stroke-width="2.508739" stroke-opacity="1" stroke-miterlimit="4"/></g><g clip-path="url(#dcaed3b6c8)"><path stroke-linecap="butt" transform="matrix(0.947335, -0.0835269, 0.0835269, 0.947335, 31.331798, 13.106428)" fill="none" stroke-linejoin="miter" d="M 5.188757 12.191702 L 5.498152 12.190118 C 9.938717 12.194043 10.358528 9.443634 10.355576 6.577605 L 10.343138 4.052983 C 10.342239 3.174617 10.237087 1.701536 7.936297 1.700722 C 5.676784 1.699423 5.559186 3.173481 5.555993 4.051486 L 5.557803 7.865798 C 5.556607 7.972901 5.451193 8.046075 5.379472 8.064492 L 5.334103 8.064615 C 5.247458 8.065222 5.126391 7.988573 5.124578 7.868835 L 5.12722 4.050791 C 5.126321 3.172426 5.004442 1.701994 2.74902 1.701056 C 0.44823 1.700241 0.338815 3.175021 0.340075 4.049295 C 0.341786 6.321444 0.325076 6.604486 0.327602 6.575844 C 0.326463 9.441513 0.74374 12.191507 5.188757 12.191702 Z M 3.062601 10.631143 C 3.074876 10.632225 3.103878 10.630659 3.135528 10.64582 C 3.640731 10.8553 4.366871 10.944065 5.113223 10.943896 C 6.181245 10.943226 7.294864 10.752775 7.90364 10.348753 C 7.933725 10.334912 7.950091 10.336355 7.983185 10.335149 C 8.06983 10.334542 8.130729 10.438873 8.040599 10.525765 C 7.282246 11.036178 6.253706 11.197019 5.305062 11.199968 C 4.28277 11.196424 3.361068 10.987332 2.984993 10.809854 C 2.926742 10.72225 2.955137 10.634038 3.062601 10.631143 Z M 9.155182 2.888524 C 8.826165 2.785293 8.528921 2.742591 8.232161 2.741166 C 7.770294 2.741678 7.337799 2.876727 6.9271 3.23224 C 6.897016 3.246081 6.880649 3.244638 6.847556 3.245843 C 6.760911 3.246451 6.700012 3.142119 6.790141 3.055228 C 7.236459 2.669869 7.711313 2.52206 8.218548 2.521426 C 8.54431 2.521284 8.885479 2.580229 9.243499 2.681894 Z M 1.141358 3.051981 C 1.587315 2.670714 2.06253 2.518814 2.573857 2.51854 C 2.899619 2.518399 3.240788 2.577344 3.594355 2.682739 L 3.51013 2.88973 C 3.181112 2.786499 2.884229 2.739706 2.587109 2.742373 C 2.125242 2.742884 1.693108 2.873842 1.277956 3.233085 C 1.247872 3.246926 1.231505 3.245483 1.202503 3.24705 C 1.111767 3.247296 1.054959 3.143326 1.141358 3.051981 Z M 4.785591 8.065734 C 4.826868 8.06525 4.89053 8.09148 4.905937 8.150566 C 4.94746 8.240819 4.946625 8.34383 4.975873 8.433001 C 5.022931 8.507248 5.186718 8.567046 5.380467 8.567635 C 5.603217 8.566658 5.842087 8.476388 5.886117 8.257606 C 5.897063 8.180226 5.957232 8.152544 6.0026 8.152421 C 6.047969 8.152297 6.106096 8.194533 6.106342 8.28527 C 6.033556 8.596355 5.693488 8.805528 5.351359 8.804227 C 5.15352 8.803277 4.961813 8.73277 4.830872 8.581029 C 4.742415 8.461897 4.740602 8.342159 4.695946 8.193902 C 4.678972 8.105814 4.727948 8.064775 4.785591 8.065734 Z M 2.630449 10.481708 C 2.645249 10.454149 2.675333 10.440308 2.720701 10.440185 C 2.76607 10.440061 2.821187 10.469662 2.835152 10.545114 L 2.838284 10.603118 C 2.820959 10.659318 2.793163 10.693978 2.750804 10.706737 L 2.688708 10.709509 C 2.540328 10.708796 2.50939 10.545256 2.630449 10.481708 Z M 5.975261 7.807767 C 5.988618 7.796575 6.002336 7.781291 6.018702 7.782734 C 6.047704 7.781167 6.078272 7.808603 6.105831 7.823403 C 6.169379 7.944462 6.124494 7.985862 6.062399 7.988633 C 5.975754 7.989241 5.82857 7.881425 5.975261 7.807767 Z M 3.786801 3.025456 L 3.788244 3.00909 C 3.807374 2.932432 3.86345 2.904389 3.908819 2.904266 C 3.954187 2.904142 4.011954 2.95047 4.012561 3.037115 C 3.998606 3.101859 3.954803 3.130984 3.905344 3.130747 C 3.864067 3.131231 3.804857 3.10127 3.786801 3.025456 Z M 9.437388 3.008245 C 9.452065 2.935317 9.508503 2.903183 9.557963 2.90342 C 9.59924 2.902936 9.656645 2.953355 9.657252 3.04 C 9.643658 3.100653 9.599856 3.129778 9.554487 3.129901 C 9.509119 3.130025 9.44991 3.100064 9.435945 3.024611 Z M 9.437388 3.008245 " stroke="#d269e6" stroke-width="2.508739" stroke-opacity="1" stroke-miterlimit="4"/></g><g clip-path="url(#b315f8e440)"><path stroke-linecap="butt" transform="matrix(0.950931, 0.0122966, -0.0122966, 0.950931, 42.302802, 12.232979)" fill="none" stroke-linejoin="miter" d="M 6.968917 1.911859 L 2.12576 1.908762 C 0.610017 1.911931 0.488379 3.306054 0.490273 3.770212 L 0.490504 10.141434 C 0.488238 10.601539 0.609027 12.000743 2.124823 12.001681 L 6.967927 12.000671 C 7.591733 11.955634 8.364847 11.703276 8.363962 10.364139 C 8.367024 9.012627 7.591325 8.747434 6.970458 8.702061 L 4.025167 8.703177 L 4.027805 8.271822 L 6.521258 8.272441 C 7.047024 8.26975 7.7133 8.014665 7.7284 6.958761 C 7.714645 5.895014 7.045891 5.640762 6.524179 5.639292 L 4.770169 5.641435 L 4.768859 5.222454 L 6.954224 5.22295 C 7.595042 5.222879 8.366014 5.122537 8.366315 3.557455 C 8.365324 2.210104 7.593838 1.953072 6.968917 1.911859 Z M 1.637934 10.245723 C 1.679058 10.249299 1.73693 10.277306 1.754102 10.334593 C 1.800661 10.440794 1.798253 10.572275 1.856922 10.661889 C 2.141252 11.048455 2.914879 11.15347 3.687179 11.155806 C 4.311569 11.155948 4.93495 11.078054 5.288217 11.077594 C 5.452555 11.079576 5.483589 11.255811 5.319834 11.299007 C 4.991211 11.299149 4.355296 11.360773 3.702156 11.361003 C 2.851821 11.359676 1.963406 11.272576 1.67812 10.812082 C 1.602439 10.677503 1.588152 10.525698 1.545222 10.38248 C 1.531732 10.292282 1.576327 10.24652 1.637934 10.245723 Z M 1.518029 3.514561 C 1.561296 3.36612 1.575812 3.218051 1.652095 3.081507 C 1.929592 2.621951 2.82399 2.536444 3.670165 2.533718 C 4.323305 2.533488 4.964868 2.590917 5.289384 2.590828 C 5.454306 2.637989 5.423786 2.819128 5.259448 2.817145 C 4.906182 2.817605 4.280836 2.743536 3.656446 2.743394 C 2.884146 2.741057 2.113227 2.845506 1.82656 3.23124 C 1.766121 3.322393 1.767874 3.457929 1.72397 3.557084 C 1.708338 3.618903 1.65121 3.648397 1.601924 3.649034 C 1.544425 3.649778 1.502769 3.60513 1.518029 3.514561 Z M 6.091602 2.68315 C 6.103924 2.682991 6.136993 2.698994 6.166274 2.739694 C 6.212037 2.784288 6.183924 2.833945 6.151598 2.875441 C 6.106791 2.904776 6.078042 2.905147 6.049292 2.905519 C 5.926025 2.903005 6.005352 2.684265 6.091602 2.68315 Z M 6.182987 11.020837 C 6.212321 11.065644 6.241602 11.106343 6.197061 11.156213 C 6.168842 11.197656 6.140305 11.214457 6.123876 11.214669 C 6.033466 11.21173 5.956617 10.986794 6.075777 10.989361 C 6.104526 10.988989 6.137384 10.988564 6.182987 11.020837 Z M 6.182987 11.020837 " stroke="#d269e6" stroke-width="2.508739" stroke-opacity="1" stroke-miterlimit="4"/></g><g clip-path="url(#55c62ae5ec)"><path stroke-linecap="butt" transform="matrix(0.945158, 0.105345, -0.105345, 0.945158, 51.294809, 12.353703)" fill="none" stroke-linejoin="miter" d="M 9.719697 3.90282 C 9.613531 2.505332 8.217999 1.70204 4.560211 1.700571 C 0.637978 1.699646 0.268185 4.018095 0.270311 4.927097 C 0.26977 5.997581 0.714618 6.948163 1.560317 7.527567 L 1.572564 7.526202 C 2.617886 8.228009 4.056754 8.418933 5.366734 8.417577 C 5.602605 8.420218 5.842102 8.418322 6.076152 8.404634 L 6.104855 8.773397 C 5.827265 8.804336 5.543774 8.819402 5.258462 8.818139 C 3.968893 8.817219 2.702804 8.507848 1.547301 7.92991 C 0.772164 8.094831 0.369544 8.598458 0.476153 9.962835 C 0.582319 11.360323 1.975134 12.176317 5.628839 12.178241 C 9.555154 12.178711 9.92721 9.843478 9.925539 8.938558 C 9.927288 6.099055 6.984149 5.464123 4.665372 5.462195 C 4.475316 5.462714 4.281178 5.463687 4.100652 5.475543 L 4.055191 5.178907 C 4.353646 5.149775 4.649839 5.137427 4.934695 5.134607 C 6.224265 5.135527 7.503055 5.447616 8.648574 6.010134 C 9.419629 5.845669 9.822678 5.271734 9.719697 3.90282 Z M 3.241572 10.857283 C 3.270602 10.858181 3.296915 10.87178 3.329131 10.901252 C 3.358629 10.943426 3.864872 11.035786 3.893902 11.036684 C 4.279487 11.121827 4.710418 11.168854 5.140426 11.170521 C 5.665235 11.169887 6.198183 11.093955 6.684848 10.973585 C 6.909811 10.915448 7.1166 10.768413 7.373324 10.735666 C 7.488548 10.768286 7.521256 10.913425 7.40243 10.959732 C 6.981964 11.006596 7.045965 11.135849 6.612355 11.213108 C 6.090757 11.316706 5.555989 11.37631 5.039345 11.376034 C 4.679644 11.374796 3.34287 11.284081 3.163619 11.04782 C 3.104168 10.959389 3.1631 10.857764 3.241572 10.857283 Z M 2.557877 2.535417 C 2.970179 2.489463 2.913887 2.355218 3.34387 2.282496 C 3.865468 2.178897 4.395699 2.115666 4.920962 2.119115 C 5.276126 2.116725 6.612901 2.20744 6.792151 2.443702 C 6.847975 2.53667 6.793125 2.63784 6.714653 2.63832 C 6.686078 2.641505 6.658855 2.619742 6.627094 2.594352 C 6.597141 2.548095 6.091353 2.459817 6.062323 2.45892 C 5.676283 2.369694 5.245807 2.32675 4.816254 2.329165 C 4.295527 2.329344 3.758042 2.401649 3.266839 2.518391 C 3.046414 2.580155 2.835543 2.727646 2.586529 2.7554 C 2.467677 2.727318 2.438596 2.577642 2.557877 2.535417 Z M 3.062047 7.170074 C 3.182718 7.214485 3.197733 7.349198 3.045339 7.39098 C 1.841887 7.198615 1.012844 6.249525 0.862293 5.047097 C 0.891298 4.973605 0.937099 4.93957 0.978376 4.939102 C 1.028272 4.941807 1.069107 4.974451 1.083641 5.030692 C 1.219633 6.10249 1.961117 7.007611 3.062047 7.170074 Z M 7.265282 2.535619 C 7.294312 2.536517 7.312461 2.551025 7.338774 2.564624 C 7.359185 2.562349 7.373252 2.577313 7.37099 2.594097 C 7.430441 2.682528 7.371508 2.784153 7.297119 2.784178 C 7.268088 2.783281 7.237693 2.770137 7.191411 2.725701 C 7.119713 2.638635 7.174109 2.533383 7.265282 2.535619 Z M 2.658651 10.707343 C 2.687682 10.70824 2.722159 10.720929 2.764359 10.765821 C 2.836512 10.856969 2.777579 10.958594 2.686861 10.960439 C 2.657831 10.959542 2.643764 10.944578 2.617451 10.93098 C 2.600667 10.928717 2.5866 10.913753 2.585235 10.901507 C 2.525329 10.808994 2.588344 10.706914 2.658651 10.707343 Z M 3.700285 7.260121 C 3.72886 7.256936 3.757449 7.290946 3.787844 7.30409 C 3.85048 7.421096 3.806044 7.467378 3.744356 7.47012 C 3.657265 7.467428 3.509357 7.36406 3.658111 7.289619 C 3.67262 7.27147 3.687583 7.257404 3.700285 7.260121 Z M 3.700285 7.260121 " stroke="#d269e6" stroke-width="2.508739" stroke-opacity="1" stroke-miterlimit="4"/></g><g clip-path="url(#cd178bfc47)"><path stroke-linecap="butt" transform="matrix(0.930209, 0.197816, -0.197816, 0.930209, 61.699181, 13.589167)" fill="none" stroke-linejoin="miter" d="M 8.514107 3.544276 C 8.515613 2.208571 7.74316 1.952906 7.116684 1.90976 L 1.439637 1.911821 C 0.815033 1.956462 0.0455187 2.208291 0.0440125 3.543996 C 0.0419062 4.896626 0.816923 5.164343 1.439381 5.208344 L 3.148889 5.210146 L 3.147647 5.63874 L 2.097957 5.639401 L 2.09889 9.830127 C 2.096662 10.708259 2.199085 12.177238 4.353259 12.176863 C 6.537264 12.178543 6.644266 10.707021 6.642476 9.829743 L 6.642784 5.210422 L 7.117282 5.210301 C 7.964728 5.206456 8.516018 4.896051 8.514107 3.544276 Z M 7.78481 3.392816 C 7.848492 3.39607 7.89174 3.441465 7.905665 3.526689 C 7.995496 4.423038 7.357893 4.525035 6.28726 4.52595 C 6.123737 4.52713 6.090162 4.349499 6.25634 4.301562 C 7.892167 4.27284 7.548492 3.900797 7.696331 3.470422 C 7.713347 3.412212 7.755832 3.394779 7.78481 3.392816 Z M 2.391501 2.280508 C 2.559041 2.278474 2.584581 2.457813 2.422421 2.504895 C 0.786594 2.533618 1.130269 2.905661 0.978412 3.33689 C 0.965413 3.394246 0.922928 3.411679 0.89395 3.413642 C 0.831123 3.414405 0.78702 3.364993 0.773096 3.279768 C 0.684119 2.387437 1.324885 2.280568 2.391501 2.280508 Z M 5.827486 10.91431 C 5.380217 11.299179 4.904336 11.450771 4.395988 11.449692 C 4.072106 11.44718 3.728227 11.390129 3.374096 11.284867 L 3.460195 11.077588 C 3.789367 11.183958 4.083925 11.226301 4.381993 11.225905 C 4.844438 11.228346 5.273816 11.095042 5.693216 10.737097 C 5.719631 10.723081 5.736556 10.723681 5.765533 10.721718 C 5.854176 10.723864 5.913403 10.824651 5.827486 10.91431 Z M 5.678909 4.449553 C 5.61541 4.328679 5.661659 4.289448 5.719614 4.285522 C 5.812274 4.286814 5.956126 4.390601 5.812 4.463244 C 5.794475 4.479569 5.776949 4.495893 5.764897 4.498457 C 5.735064 4.496402 5.707287 4.464515 5.678909 4.449553 Z M 2.913864 2.308001 C 2.943696 2.310056 2.971474 2.341942 2.999851 2.356904 C 3.062496 2.473761 3.013939 2.521882 2.955129 2.52179 C 2.870504 2.518789 2.722635 2.415857 2.870779 2.342359 C 2.884286 2.326889 2.897793 2.311419 2.913864 2.308001 Z M 3.061799 10.843161 C 3.103684 10.842652 3.164457 10.871722 3.179836 10.944039 L 3.183254 10.96011 C 3.165637 11.035245 3.104772 11.064985 3.062887 11.065494 C 3.01613 11.062839 2.956812 11.020862 2.958103 10.928202 C 2.971102 10.870847 3.015896 10.844524 3.061799 10.843161 Z M 3.061799 10.843161 " stroke="#d269e6" stroke-width="2.508739" stroke-opacity="1" stroke-miterlimit="4"/></g><g fill="#ffc5f5" fill-opacity="1"><g transform="translate(22.771694, 26.428253)"><g><path d="M 9.675781 -3.554688 C 9.105469 -3.035156 8.332031 -2.503906 7.554688 -2.347656 L 7.445312 -2.6875 C 7.621094 -2.738281 7.890625 -2.835938 8.257812 -3.011719 C 8.699219 -3.832031 8.890625 -4.953125 8.582031 -6.476562 C 7.992188 -9.386719 5.949219 -11.164062 3.003906 -10.597656 L 2.992188 -10.597656 C 0.0273438 -9.996094 -1.183594 -7.5625 -0.589844 -4.625 C 0.152344 -0.96875 2.621094 -0.585938 4.125 -0.703125 C 3.988281 -0.878906 3.878906 -1.128906 3.746094 -1.375 L 4.058594 -1.539062 C 4.898438 0.132812 6.511719 1.179688 8.40625 0.796875 C 12.035156 0.0625 10.769531 -3 9.675781 -3.554688 Z M 3.683594 -4.882812 L 3.414062 -6.226562 C 3.382812 -6.378906 3.355469 -6.660156 3.714844 -6.734375 C 4.117188 -6.816406 4.199219 -6.542969 4.230469 -6.390625 L 4.5 -5.046875 C 4.53125 -4.894531 4.5625 -4.613281 4.199219 -4.539062 C 3.800781 -4.457031 3.714844 -4.730469 3.683594 -4.882812 Z M 10.039062 -1.121094 C 10.109375 -1.132812 10.175781 -1.078125 10.152344 -0.984375 C 9.980469 -0.34375 9.15625 0.0820312 8.324219 0.25 C 7.800781 0.355469 7.269531 0.363281 6.914062 0.246094 C 6.828125 0.175781 6.863281 0.0703125 6.945312 0.0507812 C 6.972656 0.046875 6.988281 0.0585938 7.019531 0.0664062 C 7.3125 0.152344 7.773438 0.144531 8.242188 0.0507812 C 9.003906 -0.105469 9.820312 -0.5 9.957031 -1.03125 C 9.972656 -1.09375 10.011719 -1.113281 10.039062 -1.121094 Z M 1.539062 -9.003906 C 2.007812 -9.332031 2.550781 -9.570312 3.117188 -9.683594 C 3.671875 -9.796875 4.234375 -9.792969 4.738281 -9.652344 C 4.886719 -9.636719 4.953125 -9.523438 4.808594 -9.449219 C 4.269531 -9.554688 3.621094 -9.554688 3.023438 -9.433594 C 2.511719 -9.332031 2.046875 -9.136719 1.660156 -8.839844 L 1.632812 -8.835938 C 1.535156 -8.816406 1.484375 -8.921875 1.539062 -9.003906 Z M 3.65625 -4.242188 C 3.734375 -4.058594 3.929688 -4.023438 4.109375 -4.058594 C 4.222656 -4.082031 4.328125 -4.132812 4.402344 -4.191406 C 4.410156 -4.207031 4.441406 -4.214844 4.453125 -4.214844 C 4.535156 -4.234375 4.625 -4.148438 4.558594 -4.050781 C 4.449219 -3.957031 4.320312 -3.886719 4.179688 -3.859375 C 3.902344 -3.800781 3.597656 -3.882812 3.46875 -4.160156 C 3.4375 -4.242188 3.472656 -4.292969 3.527344 -4.304688 C 3.570312 -4.3125 3.628906 -4.292969 3.65625 -4.242188 Z M 4.011719 -7.398438 C 4.367188 -7.429688 4.648438 -7.183594 4.757812 -6.859375 C 4.769531 -6.789062 4.738281 -6.738281 4.679688 -6.726562 C 4.640625 -6.71875 4.574219 -6.75 4.550781 -6.800781 C 4.539062 -6.859375 4.351562 -7.222656 4.039062 -7.1875 C 3.910156 -7.191406 3.859375 -7.367188 4.011719 -7.398438 Z M 10.289062 -1.386719 C 10.203125 -1.371094 10.09375 -1.5625 10.203125 -1.585938 C 10.230469 -1.59375 10.257812 -1.597656 10.308594 -1.578125 C 10.34375 -1.542969 10.378906 -1.507812 10.347656 -1.457031 C 10.328125 -1.410156 10.300781 -1.390625 10.289062 -1.386719 Z M 5.25 -9.410156 C 5.261719 -9.351562 5.214844 -9.300781 5.160156 -9.289062 C 5.101562 -9.277344 5.054688 -9.3125 5.042969 -9.367188 C 5.03125 -9.421875 5.0625 -9.484375 5.117188 -9.496094 C 5.171875 -9.507812 5.238281 -9.464844 5.25 -9.410156 Z M 5.25 -9.410156 "/></g></g></g><g fill="#ffc5f5" fill-opacity="1"><g transform="translate(32.33412, 24.474451)"><g><path d="M 4.929688 -0.25 L 5.226562 -0.277344 C 9.433594 -0.648438 9.597656 -3.285156 9.359375 -6.003906 L 9.132812 -8.394531 C 9.0625 -9.226562 8.839844 -10.609375 6.65625 -10.417969 C 4.515625 -10.230469 4.527344 -8.828125 4.601562 -7.996094 L 4.917969 -4.378906 C 4.929688 -4.277344 4.835938 -4.199219 4.765625 -4.179688 L 4.726562 -4.175781 C 4.640625 -4.167969 4.523438 -4.230469 4.511719 -4.339844 L 4.191406 -7.960938 C 4.121094 -8.789062 3.882812 -10.175781 1.746094 -9.984375 C -0.4375 -9.792969 -0.414062 -8.390625 -0.339844 -7.558594 C -0.148438 -5.40625 -0.140625 -5.136719 -0.144531 -5.164062 C 0.0976562 -2.449219 0.71875 0.121094 4.929688 -0.25 Z M 2.785156 -1.550781 C 2.800781 -1.550781 2.828125 -1.554688 2.855469 -1.542969 C 3.351562 -1.386719 4.050781 -1.363281 4.753906 -1.425781 C 5.769531 -1.515625 6.808594 -1.792969 7.351562 -2.222656 C 7.378906 -2.238281 7.390625 -2.242188 7.421875 -2.242188 C 7.503906 -2.25 7.570312 -2.15625 7.492188 -2.066406 C 6.816406 -1.523438 5.859375 -1.28125 4.957031 -1.203125 C 3.988281 -1.117188 3.097656 -1.238281 2.730469 -1.375 C 2.667969 -1.457031 2.6875 -1.542969 2.785156 -1.550781 Z M 7.910156 -9.394531 C 7.59375 -9.464844 7.308594 -9.484375 7.027344 -9.457031 C 6.589844 -9.417969 6.191406 -9.257812 5.828125 -8.882812 C 5.800781 -8.867188 5.785156 -8.867188 5.757812 -8.863281 C 5.675781 -8.855469 5.609375 -8.949219 5.6875 -9.042969 C 6.078125 -9.445312 6.515625 -9.625 6.992188 -9.667969 C 7.300781 -9.695312 7.632812 -9.667969 7.976562 -9.597656 Z M 0.335938 -8.570312 C 0.726562 -8.972656 1.164062 -9.152344 1.644531 -9.195312 C 1.953125 -9.222656 2.28125 -9.195312 2.628906 -9.125 L 2.5625 -8.921875 C 2.242188 -8.992188 1.957031 -9.011719 1.675781 -8.984375 C 1.238281 -8.949219 0.84375 -8.785156 0.476562 -8.414062 C 0.453125 -8.394531 0.4375 -8.394531 0.410156 -8.390625 C 0.324219 -8.382812 0.257812 -8.476562 0.335938 -8.570312 Z M 4.203125 -4.128906 C 4.246094 -4.132812 4.304688 -4.109375 4.324219 -4.054688 C 4.375 -3.976562 4.382812 -3.875 4.417969 -3.792969 C 4.464844 -3.726562 4.625 -3.683594 4.808594 -3.703125 C 5.019531 -3.71875 5.238281 -3.824219 5.261719 -4.039062 C 5.269531 -4.109375 5.324219 -4.144531 5.367188 -4.148438 C 5.40625 -4.152344 5.46875 -4.113281 5.476562 -4.03125 C 5.429688 -3.726562 5.125 -3.503906 4.800781 -3.472656 C 4.617188 -3.457031 4.429688 -3.511719 4.289062 -3.640625 C 4.195312 -3.746094 4.183594 -3.859375 4.128906 -3.996094 C 4.109375 -4.078125 4.148438 -4.125 4.203125 -4.128906 Z M 2.363281 -1.65625 C 2.375 -1.683594 2.402344 -1.703125 2.445312 -1.707031 C 2.488281 -1.710938 2.546875 -1.6875 2.566406 -1.617188 L 2.570312 -1.558594 C 2.5625 -1.503906 2.539062 -1.472656 2.496094 -1.453125 L 2.441406 -1.449219 C 2.300781 -1.4375 2.257812 -1.589844 2.363281 -1.65625 Z M 5.308594 -4.46875 C 5.320312 -4.484375 5.335938 -4.5 5.347656 -4.5 C 5.378906 -4.503906 5.40625 -4.476562 5.4375 -4.464844 C 5.503906 -4.359375 5.464844 -4.3125 5.410156 -4.308594 C 5.324219 -4.300781 5.175781 -4.386719 5.308594 -4.46875 Z M 2.839844 -8.820312 L 2.839844 -8.832031 C 2.847656 -8.90625 2.902344 -8.9375 2.941406 -8.941406 C 2.984375 -8.945312 3.046875 -8.910156 3.050781 -8.824219 C 3.042969 -8.765625 3.003906 -8.734375 2.960938 -8.730469 C 2.917969 -8.726562 2.859375 -8.75 2.839844 -8.820312 Z M 8.1875 -9.304688 C 8.195312 -9.375 8.25 -9.410156 8.292969 -9.414062 C 8.335938 -9.417969 8.394531 -9.378906 8.402344 -9.296875 C 8.394531 -9.238281 8.351562 -9.207031 8.3125 -9.203125 C 8.269531 -9.199219 8.210938 -9.222656 8.191406 -9.289062 Z M 8.1875 -9.304688 "/></g></g></g><g fill="#ffc5f5" fill-opacity="1"><g transform="translate(42.155242, 23.644149)"><g><path d="M 6.75 -9.507812 L 2.144531 -9.570312 C 0.703125 -9.585938 0.574219 -8.261719 0.566406 -7.824219 L 0.488281 -1.761719 C 0.484375 -1.324219 0.578125 0.0078125 2.019531 0.0273438 L 6.628906 0.0859375 C 7.222656 0.0507812 7.960938 -0.179688 7.976562 -1.453125 C 7.992188 -2.738281 7.261719 -3 6.667969 -3.050781 L 3.871094 -3.085938 L 3.875 -3.496094 L 6.25 -3.464844 C 6.742188 -3.460938 7.382812 -3.691406 7.410156 -4.695312 C 7.410156 -5.714844 6.777344 -5.960938 6.28125 -5.96875 L 4.613281 -5.988281 L 4.621094 -6.386719 L 6.695312 -6.359375 C 7.304688 -6.351562 8.039062 -6.441406 8.058594 -7.921875 C 8.074219 -9.210938 7.34375 -9.460938 6.75 -9.507812 Z M 1.574219 -1.648438 C 1.617188 -1.648438 1.675781 -1.617188 1.6875 -1.5625 C 1.730469 -1.460938 1.726562 -1.335938 1.78125 -1.25 C 2.046875 -0.878906 2.78125 -0.769531 3.515625 -0.761719 C 4.109375 -0.753906 4.703125 -0.816406 5.042969 -0.8125 C 5.199219 -0.808594 5.222656 -0.640625 5.066406 -0.597656 C 4.757812 -0.601562 4.148438 -0.554688 3.527344 -0.5625 C 2.722656 -0.574219 1.875 -0.667969 1.613281 -1.109375 C 1.542969 -1.238281 1.53125 -1.378906 1.488281 -1.519531 C 1.476562 -1.605469 1.519531 -1.648438 1.574219 -1.648438 Z M 1.546875 -8.050781 C 1.589844 -8.191406 1.605469 -8.332031 1.679688 -8.457031 C 1.953125 -8.894531 2.800781 -8.964844 3.605469 -8.957031 C 4.226562 -8.949219 4.835938 -8.882812 5.144531 -8.878906 C 5.300781 -8.835938 5.269531 -8.667969 5.117188 -8.667969 C 4.777344 -8.671875 4.183594 -8.75 3.589844 -8.757812 C 2.855469 -8.769531 2.117188 -8.679688 1.847656 -8.316406 C 1.789062 -8.230469 1.785156 -8.101562 1.742188 -8.003906 C 1.726562 -7.949219 1.671875 -7.921875 1.628906 -7.921875 C 1.574219 -7.921875 1.53125 -7.964844 1.546875 -8.050781 Z M 5.910156 -8.785156 C 5.921875 -8.785156 5.949219 -8.769531 5.976562 -8.726562 C 6.019531 -8.683594 5.992188 -8.644531 5.960938 -8.601562 C 5.917969 -8.574219 5.890625 -8.574219 5.863281 -8.574219 C 5.75 -8.574219 5.824219 -8.785156 5.910156 -8.785156 Z M 5.890625 -0.855469 C 5.917969 -0.8125 5.945312 -0.769531 5.902344 -0.730469 C 5.875 -0.6875 5.847656 -0.671875 5.832031 -0.671875 C 5.746094 -0.675781 5.679688 -0.886719 5.792969 -0.886719 C 5.820312 -0.886719 5.847656 -0.886719 5.890625 -0.855469 Z M 5.890625 -0.855469 "/></g></g></g><g fill="#ffc5f5" fill-opacity="1"><g transform="translate(50.030668, 23.695595)"><g><path d="M 10.039062 -6.628906 C 10.085938 -7.960938 8.851562 -8.867188 5.398438 -9.253906 C 1.6875 -9.664062 1.09375 -7.515625 0.996094 -6.65625 C 0.886719 -5.644531 1.207031 -4.699219 1.945312 -4.0625 L 1.960938 -4.0625 C 2.871094 -3.292969 4.210938 -2.957031 5.449219 -2.820312 C 5.671875 -2.792969 5.898438 -2.769531 6.125 -2.757812 L 6.113281 -2.40625 C 5.84375 -2.40625 5.574219 -2.421875 5.308594 -2.453125 C 4.085938 -2.585938 2.925781 -3.015625 1.890625 -3.683594 C 1.140625 -3.613281 0.710938 -3.175781 0.664062 -1.875 C 0.613281 -0.542969 1.847656 0.375 5.304688 0.761719 C 9.011719 1.175781 9.609375 -0.992188 9.703125 -1.847656 C 10.003906 -4.53125 7.289062 -5.445312 5.097656 -5.6875 C 4.917969 -5.707031 4.734375 -5.730469 4.5625 -5.734375 L 4.554688 -6.019531 C 4.835938 -6.015625 5.121094 -6 5.386719 -5.96875 C 6.609375 -5.832031 7.78125 -5.402344 8.804688 -4.75 C 9.550781 -4.820312 9.992188 -5.328125 10.039062 -6.628906 Z M 3.183594 -0.738281 C 3.210938 -0.738281 3.238281 -0.71875 3.261719 -0.6875 C 3.285156 -0.644531 3.753906 -0.507812 3.78125 -0.503906 C 4.136719 -0.378906 4.539062 -0.289062 4.945312 -0.246094 C 5.4375 -0.191406 5.953125 -0.203125 6.429688 -0.265625 C 6.644531 -0.296875 6.859375 -0.414062 7.097656 -0.417969 C 7.207031 -0.375 7.222656 -0.234375 7.105469 -0.203125 C 6.707031 -0.207031 6.75 -0.0742188 6.332031 -0.046875 C 5.832031 -0.00390625 5.320312 -0.00390625 4.828125 -0.0585938 C 4.488281 -0.0976562 3.234375 -0.320312 3.089844 -0.566406 C 3.046875 -0.65625 3.113281 -0.746094 3.183594 -0.738281 Z M 3.414062 -8.675781 C 3.8125 -8.675781 3.769531 -8.808594 4.183594 -8.832031 C 4.6875 -8.875 5.199219 -8.875 5.691406 -8.820312 C 6.027344 -8.785156 7.28125 -8.558594 7.425781 -8.316406 C 7.472656 -8.226562 7.40625 -8.132812 7.335938 -8.140625 C 7.304688 -8.144531 7.28125 -8.160156 7.253906 -8.191406 C 7.230469 -8.238281 6.761719 -8.375 6.734375 -8.378906 C 6.378906 -8.503906 5.976562 -8.589844 5.570312 -8.636719 C 5.078125 -8.691406 4.566406 -8.675781 4.089844 -8.617188 C 3.871094 -8.582031 3.660156 -8.464844 3.417969 -8.464844 C 3.308594 -8.503906 3.296875 -8.648438 3.414062 -8.675781 Z M 3.402344 -4.242188 C 3.507812 -4.1875 3.507812 -4.058594 3.363281 -4.03125 C 2.246094 -4.34375 1.5625 -5.328125 1.546875 -6.480469 C 1.582031 -6.550781 1.628906 -6.574219 1.671875 -6.566406 C 1.710938 -6.5625 1.75 -6.53125 1.757812 -6.472656 C 1.773438 -5.449219 2.378906 -4.511719 3.402344 -4.242188 Z M 7.863281 -8.179688 C 7.894531 -8.179688 7.90625 -8.164062 7.933594 -8.144531 C 7.945312 -8.144531 7.957031 -8.128906 7.957031 -8.113281 C 8.003906 -8.023438 7.9375 -7.929688 7.867188 -7.9375 C 7.839844 -7.941406 7.8125 -7.960938 7.773438 -8.007812 C 7.714844 -8.097656 7.78125 -8.191406 7.863281 -8.179688 Z M 2.648438 -0.941406 C 2.679688 -0.9375 2.703125 -0.921875 2.742188 -0.875 C 2.804688 -0.78125 2.734375 -0.691406 2.652344 -0.699219 C 2.625 -0.703125 2.609375 -0.71875 2.585938 -0.734375 C 2.570312 -0.738281 2.558594 -0.753906 2.558594 -0.765625 C 2.511719 -0.859375 2.578125 -0.949219 2.648438 -0.941406 Z M 3.996094 -4.089844 C 4.023438 -4.085938 4.050781 -4.054688 4.074219 -4.039062 C 4.121094 -3.921875 4.074219 -3.882812 4.015625 -3.890625 C 3.933594 -3.898438 3.804688 -4.011719 3.953125 -4.066406 C 3.96875 -4.078125 3.984375 -4.09375 3.996094 -4.089844 Z M 3.996094 -4.089844 "/></g></g></g><g fill="#ffc5f5" fill-opacity="1"><g transform="translate(59.325388, 24.751679)"><g><path d="M 9.59375 -6.179688 C 9.859375 -7.425781 9.1875 -7.8125 8.617188 -7.976562 L 3.335938 -9.101562 C 2.746094 -9.183594 1.980469 -9.101562 1.714844 -7.855469 C 1.445312 -6.597656 2.113281 -6.195312 2.683594 -6.03125 L 4.273438 -5.695312 L 4.1875 -5.292969 L 3.207031 -5.5 L 2.378906 -1.605469 C 2.203125 -0.789062 2.011719 0.601562 4.015625 1.027344 C 6.046875 1.460938 6.433594 0.113281 6.609375 -0.703125 L 7.523438 -5.003906 L 7.964844 -4.910156 C 8.753906 -4.742188 9.324219 -4.921875 9.59375 -6.179688 Z M 8.945312 -6.464844 C 9 -6.453125 9.03125 -6.402344 9.03125 -6.316406 C 8.9375 -5.46875 8.320312 -5.496094 7.324219 -5.710938 C 7.171875 -5.742188 7.179688 -5.914062 7.34375 -5.921875 C 8.867188 -5.628906 8.625 -6.039062 8.847656 -6.410156 C 8.875 -6.464844 8.917969 -6.46875 8.945312 -6.464844 Z M 4.148438 -8.566406 C 4.300781 -8.535156 4.292969 -8.363281 4.132812 -8.355469 C 2.605469 -8.648438 2.847656 -8.234375 2.625 -7.863281 C 2.601562 -7.8125 2.554688 -7.808594 2.527344 -7.8125 C 2.472656 -7.824219 2.441406 -7.875 2.445312 -7.960938 C 2.539062 -8.808594 3.152344 -8.777344 4.148438 -8.566406 Z M 5.632812 0.144531 C 5.140625 0.414062 4.671875 0.457031 4.199219 0.359375 C 3.894531 0.292969 3.589844 0.171875 3.277344 0.00390625 L 3.402344 -0.171875 C 3.6875 -0.0117188 3.953125 0.0898438 4.230469 0.148438 C 4.660156 0.238281 5.085938 0.199219 5.542969 -0.0507812 C 5.574219 -0.0585938 5.589844 -0.0546875 5.617188 -0.046875 C 5.699219 -0.03125 5.734375 0.078125 5.632812 0.144531 Z M 6.773438 -5.898438 C 6.742188 -6.019531 6.792969 -6.054688 6.847656 -6.042969 C 6.929688 -6.023438 7.046875 -5.898438 6.894531 -5.859375 C 6.878906 -5.847656 6.863281 -5.835938 6.847656 -5.839844 C 6.820312 -5.847656 6.796875 -5.878906 6.773438 -5.898438 Z M 4.625 -8.4375 C 4.652344 -8.429688 4.675781 -8.398438 4.699219 -8.378906 C 4.730469 -8.253906 4.679688 -8.222656 4.625 -8.234375 C 4.542969 -8.25 4.425781 -8.378906 4.578125 -8.417969 C 4.59375 -8.429688 4.613281 -8.4375 4.625 -8.4375 Z M 3.078125 -0.472656 C 3.117188 -0.464844 3.167969 -0.425781 3.167969 -0.351562 L 3.164062 -0.339844 C 3.136719 -0.273438 3.074219 -0.257812 3.03125 -0.265625 C 2.992188 -0.273438 2.945312 -0.328125 2.960938 -0.410156 C 2.988281 -0.460938 3.035156 -0.480469 3.078125 -0.472656 Z M 3.078125 -0.472656 "/></g></g></g></svg>